<?xml version="1.0" encoding="UTF-8" standalone="no"?> <svg xmlns="http://www.w3.org/2000/svg" viewBox="0 0 64 64" stroke-width="2px"><g id="Layer_92" data-name="Layer 92"><path d="M61.06,30.94l-8.87-8.87V8.48A1.5,1.5,0,0,0,50.69,7H42.28a1.5,1.5,0,0,0-1.5,1.5v2.18L33.06,2.94a1.55,1.55,0,0,0-2.12,0l-28,28A1.51,1.51,0,0,0,4,33.5H8.37V60a1.5,1.5,0,0,0,1.5,1.5H25.08a1.5,1.5,0,0,0,1.5-1.5V43.32H37.42V60a1.5,1.5,0,0,0,1.5,1.5H54.13a1.5,1.5,0,0,0,1.5-1.5V33.5H60A1.51,1.51,0,0,0,61.06,30.94Zm-6.93-.44a1.5,1.5,0,0,0-1.5,1.5V58.5H40.42V41.82a1.5,1.5,0,0,0-1.5-1.5H25.08a1.5,1.5,0,0,0-1.5,1.5V58.5H11.37V32a1.5,1.5,0,0,0-1.5-1.5H7.62L32,6.12l9.22,9.22a1.51,1.51,0,0,0,2.45-.51A45.26,45.26,0,0,0,43.78,10h5.41V22.69a1.56,1.56,0,0,0,.44,1.06l6.75,6.75Z"/></g></svg>