<?xml version="1.0" encoding="utf-8"?>

<!DOCTYPE svg PUBLIC "-//W3C//DTD SVG 1.1//EN" "http://www.w3.org/Graphics/SVG/1.1/DTD/svg11.dtd">
<!-- Uploaded to: SVG Repo, www.svgrepo.com, Generator: SVG Repo Mixer Tools -->
<svg height="28px" width="28px" version="1.1" id="_x32_" xmlns="http://www.w3.org/2000/svg" xmlns:xlink="http://www.w3.org/1999/xlink" 
	 viewBox="0 0 512 512"  xml:space="preserve" stroke="#e9ebed" fill="#e9ebed">
<g>
	<path class="st0" d="M300.07,188.818c11.256-11.272,18.226-26.783,18.218-43.994v-0.032c0.008-17.227-6.962-32.736-18.218-44.01
		l0.306,0.299l-0.355-0.355c-11.28-11.24-26.783-18.226-44.017-18.218h-0.025c-17.218-0.008-32.721,6.978-44.002,18.218
		l-0.056,0.056c-11.248,11.273-18.218,26.783-18.21,44.01v0.032c-0.008,17.211,6.961,32.722,18.21,43.994l0.161,0.161l-0.105-0.113
		c11.272,11.248,26.775,18.226,44.002,18.218h0.025c17.234,0.008,32.745-6.97,44.017-18.218L300.07,188.818z M284.874,173.669
		c-7.639,7.526-17.38,11.909-28.878,11.957c-11.498-0.048-21.232-4.431-28.87-11.957c-7.518-7.646-11.901-17.371-11.965-28.861
		c0.064-11.514,4.447-21.272,11.981-28.902c7.647-7.518,17.372-11.901,28.854-11.942c11.49,0.04,21.215,4.423,28.861,11.942
		c7.534,7.63,11.918,17.388,11.982,28.902C296.775,156.298,292.399,166.023,284.874,173.669z"/>
	<path class="st0" d="M298.345,283.088c22.923-6.993,43.558-19.386,60.036-35.895c26.13-26.058,42.414-62.502,42.414-102.386
		c0-39.876-16.268-76.336-42.406-102.394C332.412,16.365,296.097,0.113,256.423,0.016V0.008L256.084,0v0.008h-0.008
		c-0.072,0-0.097-0.008-0.17-0.008c-0.048,0-0.096,0.008-0.144,0.008c-0.122,0-0.137,0.008-0.299,0.016
		c-39.634,0.121-75.901,16.349-101.854,42.39c-26.13,26.058-42.406,62.501-42.406,102.394c0,39.868,16.284,76.311,42.406,102.386
		c16.478,16.509,37.105,28.902,60.036,35.895V512h18.967h55.008h68.48v-81.96h-57.756v-23.117h60.6v-62.711h-60.6V283.088z
		 M337.496,365.669v19.797h-60.6v66.031h57.756v39.054h-47.031h-52.526V266.507l-8.195-1.982
		c-22.399-5.431-42.519-16.856-58.118-32.488l-0.016-0.016c-22.23-22.198-36.113-53.236-36.113-87.213
		c0-34.002,13.891-65.04,36.113-87.213l0.025-0.017c22.052-22.142,52.912-35.968,86.625-36.105l1.385,0.186l0.516-0.145
		c33.422,0.338,64,14.1,85.892,36.065l0.088,0.081c22.19,22.174,36.049,53.195,36.049,87.149c0,33.986-13.891,65.023-36.121,87.213
		l-0.017,0.016c-15.599,15.632-35.726,27.057-58.118,32.488l-8.195,1.982v99.162H337.496z"/>
</g>
</svg>